<?xml version="1.0" encoding="UTF-8"?>
<svg version="1.1" xmlns="http://www.w3.org/2000/svg" width="512" height="512">
<path d="M0 0 C2.23828125 1.765625 2.23828125 1.765625 4.3125 4.25 C5.08851563 5.17296875 5.86453125 6.0959375 6.6640625 7.046875 C9.66097047 10.83560816 12.5780396 14.67189437 15.44140625 18.5625 C18.42484018 22.60234347 21.52947624 26.54584506 24.625 30.5 C64.80672061 82.00745068 87.4674106 125.2253836 79.359375 192.40625 C75.86617952 217.61800869 63.96274393 238.83260727 49 259 C48.56397461 259.59055176 48.12794922 260.18110352 47.67871094 260.78955078 C42.06126887 268.3592626 36.04887845 275.53896082 29.875 282.65625 C27.33152855 285.59567083 24.8743802 288.59630604 22.4375 291.625 C18.74993136 296.17076643 14.88119314 300.50488201 10.88354492 304.77709961 C8.35321555 307.48564011 6.00432395 310.24786157 3.75 313.1875 C1 316 1 316 -2.375 317.375 C-9.81327438 316.60552334 -13.9490971 310.17506042 -18.4375 304.6875 C-19.18902344 303.74261719 -19.94054687 302.79773438 -20.71484375 301.82421875 C-22.89591147 299.12864274 -25.16091441 296.55875624 -27.5 294 C-32.2044773 288.82426245 -36.61274675 283.44527252 -41 278 C-41.91339164 276.89007259 -42.82748435 275.78072183 -43.7421875 274.671875 C-72.3860762 239.73008642 -87.21842975 206.58070409 -87.25 161.1875 C-87.25067474 160.31761444 -87.25134949 159.44772888 -87.25204468 158.55148315 C-87.22873221 139.63679639 -85.82425658 121.79103313 -79 104 C-78.73622559 103.3090625 -78.47245117 102.618125 -78.20068359 101.90625 C-70.87281327 83.21192571 -59.70278868 66.54561925 -47.39355469 50.78613281 C-46.05576956 49.07148039 -44.73234412 47.34686216 -43.4140625 45.6171875 C-40.95883461 42.39884824 -38.48405046 39.196132 -36 36 C-35.36094727 35.17749756 -35.36094727 35.17749756 -34.70898438 34.33837891 C-27.71596581 25.35364506 -20.57490035 16.49354598 -13.36376953 7.68310547 C-12.1380993 6.17043619 -10.94023074 4.63534045 -9.74609375 3.09765625 C-6.82763386 -0.40841301 -4.44300411 -0.46361782 0 0 Z M-4 50 C-6.3487446 52.65335994 -8.67458843 55.32618182 -11 58 C-11.82242188 58.93328125 -12.64484375 59.8665625 -13.4921875 60.828125 C-37.99778978 88.93125261 -58.34021862 124.45262532 -56 163 C-52.55446454 203.74051776 -30.78121726 236.39458165 -4 266 C24.7898992 237.36216013 48.61867869 199.39742646 49.25 157.625 C48.75416049 115.5687946 25.11734527 78.72475185 -4 50 Z " fill="#8BBB33" transform="translate(259,21)"/>
<path d="M0 0 C1.01992538 0.08764618 1.01992538 0.08764618 2.06045532 0.17706299 C13.07094675 1.20230568 24.04233456 2.72898023 34.99951172 4.203125 C38.91643387 4.72840681 42.83500006 5.2397591 46.75390625 5.75 C59.1844968 7.39342444 71.54999675 9.21714943 83.8671875 11.57421875 C84.90426849 11.77259338 85.94134949 11.97096802 87.00985718 12.175354 C130.56185125 20.80868071 165.93572528 49.62732626 190.79931641 85.74707031 C210.70557183 115.68463015 213.4904722 152.69554169 216.3359375 187.609375 C216.4010553 188.38772705 216.4661731 189.1660791 216.53326416 189.96801758 C217.25900379 198.78700217 217.73038669 207.596212 217.8515625 216.4453125 C217.87200623 217.2553775 217.89244995 218.0654425 217.91351318 218.90005493 C217.93655665 224.5289122 217.93655665 224.5289122 216.26445007 226.70101929 C213.51213765 228.80537997 210.85800963 228.31158272 207.46484375 228.25 C206.40324791 228.23262787 206.40324791 228.23262787 205.32020569 228.21490479 C197.36579239 228.03958584 189.44648165 227.43178581 181.5234375 226.734375 C180.75368591 226.66812927 179.98393433 226.60188354 179.19085693 226.53363037 C155.77098748 224.50561089 132.3324169 222.16332718 109.5859375 215.984375 C108.89161621 215.79794434 108.19729492 215.61151367 107.48193359 215.41943359 C91.91521157 211.10409693 78.00738585 203.21186236 65.5859375 192.984375 C65.05468262 192.55318359 64.52342773 192.12199219 63.97607422 191.67773438 C49.28154604 179.70282887 35.61648429 166.44667931 24.5859375 150.984375 C24.18826172 150.43104492 23.79058594 149.87771484 23.38085938 149.30761719 C-3.59808221 111.19486199 -9.12180419 53.69633429 -10.7265625 8.171875 C-10.76394531 7.46417969 -10.80132812 6.75648438 -10.83984375 6.02734375 C-9.6029804 0.09266912 -5.26910486 -0.47315592 0 0 Z M26.5859375 37.984375 C28.89441185 78.90818253 36.22942909 117.83584115 64.5859375 148.984375 C65.15570313 149.63664062 65.72546875 150.28890625 66.3125 150.9609375 C76.26050883 161.72519321 89.36865696 169.05315799 102.5859375 174.984375 C104.30103516 175.78294922 104.30103516 175.78294922 106.05078125 176.59765625 C128.7504613 186.47929425 154.95297515 190.42439484 179.5859375 189.984375 C181.2033421 150.93201524 168.9409189 109.35832815 143.1484375 79.796875 C141.64311827 78.17814131 140.12246117 76.57351934 138.5859375 74.984375 C137.51859375 73.87835938 137.51859375 73.87835938 136.4296875 72.75 C109.19923044 46.45209284 66.66240669 37.37471932 29.92578125 37.9140625 C28.82363281 37.93726563 27.72148438 37.96046875 26.5859375 37.984375 Z " fill="#83B735" transform="translate(12.4140625,263.015625)"/>
<path d="M0 0 C3.24073531 -0.1706827 4.97021862 -0.07319639 7.59570312 1.91479492 C9.90439193 4.91351259 9.7447457 6.13090447 9.34179688 9.86083984 C9.21353516 11.10833008 9.08527344 12.35582031 8.953125 13.64111328 C8.76685971 15.17552306 8.57851634 16.70968129 8.38867188 18.24365234 C8.1640216 20.16063974 7.93941538 22.0776323 7.71484375 23.99462891 C6.90185904 30.79199491 6.02594092 37.58063418 5.13867188 44.36865234 C4.98182922 45.57341217 4.82498657 46.778172 4.66339111 48.0194397 C-6.07425519 130.16523692 -6.07425519 130.16523692 -32.61132812 160.24365234 C-33.26230469 161.00419922 -33.91328125 161.76474609 -34.58398438 162.54833984 C-46.03216583 175.65088278 -58.38752694 188.16658918 -72.61132812 198.24365234 C-73.18447754 198.6505127 -73.75762695 199.05737305 -74.34814453 199.4765625 C-107.43167626 222.59906433 -149.98582027 224.62018418 -188.98632812 227.49365234 C-190.06470947 227.57373535 -191.14309082 227.65381836 -192.25415039 227.73632812 C-195.3726049 227.94595986 -198.48900293 228.10386103 -201.61132812 228.24365234 C-202.85043945 228.31648437 -204.08955078 228.38931641 -205.36621094 228.46435547 C-206.61499023 228.51011719 -207.86376953 228.55587891 -209.15039062 228.60302734 C-210.8589624 228.6798877 -210.8589624 228.6798877 -212.60205078 228.75830078 C-215.61132812 228.24365234 -215.61132812 228.24365234 -218.01513672 226.34619141 C-220.30456577 221.89619686 -219.95227648 218.15323015 -219.61132812 213.24365234 C-219.56399536 212.43157318 -219.5166626 211.61949402 -219.46789551 210.7828064 C-219.3019523 208.2598187 -219.09532676 205.7430941 -218.87695312 203.22412109 C-218.79919647 202.29554794 -218.72143982 201.36697479 -218.6413269 200.41026306 C-218.38765776 197.4166398 -218.12585778 194.42383464 -217.86132812 191.43115234 C-217.77107361 190.40576355 -217.68081909 189.38037476 -217.58782959 188.32391357 C-211.86871594 123.88806375 -211.86871594 123.88806375 -198.61132812 98.24365234 C-198.299375 97.63344238 -197.98742187 97.02323242 -197.66601562 96.39453125 C-193.24553435 87.8837571 -187.97729981 80.41384877 -181.61132812 73.24365234 C-180.96671631 72.51581543 -180.32210449 71.78797852 -179.65795898 71.03808594 C-133.84362131 19.66154422 -84.15257439 9.59281819 -18.36132812 1.93115234 C-17.6200769 1.84388885 -16.87882568 1.75662537 -16.1151123 1.66671753 C-10.74946575 1.03952607 -5.3788637 0.50187977 0 0 Z M-148.22070312 83.70947266 C-151.47233765 87.29677451 -154.105969 91.11098052 -156.61132812 95.24365234 C-156.95615234 95.79827148 -157.30097656 96.35289062 -157.65625 96.92431641 C-174.97346684 125.00101719 -180.53340342 157.72006204 -181.61132812 190.24365234 C-143.36548701 191.00090317 -103.5766886 180.50346442 -73.61132812 156.24365234 C-72.52271484 155.38513672 -72.52271484 155.38513672 -71.41210938 154.50927734 C-43.90946444 131.81554282 -32.86502995 93.800277 -29.36132812 59.74365234 C-28.6813263 52.57164944 -28.34766961 45.45031847 -28.61132812 38.24365234 C-73.62126656 36.61241968 -117.0839351 50.58734253 -148.22070312 83.70947266 Z " fill="#4E9D3F" transform="translate(501.611328125,262.75634765625)"/>
</svg>
