<?xml version="1.0" encoding="UTF-8"?>
<svg id="Capa_1" data-name="Capa 1" xmlns="http://www.w3.org/2000/svg" viewBox="0 0 356.68 330.41">
  <path d="m236.51,111.33c0,41.53-7.06,55.15-54.64,108.76-2.98,3.36-5.92,2.91-8.73-.31-46.5-53.3-53.83-66.57-53.82-108.45,0-40.07,12-56.17,54.51-108.9,2.66-3.3,5.55-3.19,8.04.06,41.01,53.51,54.64,65.95,54.64,108.84Zm-58.81,76.26c52.96-57.14,45.79-105.23,0-152.98-46.64,49.15-52,97.54,0,152.98Z"/>
  <path d="m318.28,291.98c-29.36,29.37-43.99,34.01-115.53,38.28-4.48.27-6.25-2.13-5.96-6.39,4.8-70.57,9-85.14,38.62-114.75,28.34-28.33,48.2-31.24,115.54-38.47,4.22-.45,6.18,1.66,5.64,5.73-8.83,66.84-7.98,85.27-38.31,115.6Zm-95.51,12.35c77.86-2.97,106.78-42.05,108.16-108.19-67.73,1.78-105.74,32.22-108.16,108.19Z"/>
  <path d="m121.38,208.88c29.37,29.37,34,43.99,38.27,115.54.27,4.48-2.13,6.25-6.39,5.96-70.57-4.81-85.14-9.01-114.74-38.63C10.19,263.41,7.29,243.55.06,176.2c-.45-4.22,1.66-6.18,5.73-5.64,66.84,8.84,85.27,7.99,115.59,38.32Zm12.34,95.51c-2.96-77.86-42.03-106.79-108.17-108.17,1.78,67.73,32.2,105.74,108.17,108.17Z"/>
</svg>