<?xml version="1.0" standalone="no"?>
<!DOCTYPE svg PUBLIC "-//W3C//DTD SVG 20010904//EN"
 "http://www.w3.org/TR/2001/REC-SVG-20010904/DTD/svg10.dtd">
<svg version="1.0" xmlns="http://www.w3.org/2000/svg"
 width="1024.000000pt" height="1024.000000pt" viewBox="0 0 1024.000000 1024.000000"
 preserveAspectRatio="xMidYMid meet">

<g transform="translate(0.000000,1024.000000) scale(0.100000,-0.100000)"
fill="#000000" stroke="none">
<path d="M3786 6870 c-267 -31 -529 -126 -747 -271 -119 -80 -294 -254 -371
-370 -105 -157 -172 -313 -215 -504 -14 -64 -18 -122 -18 -285 1 -190 3 -213
28 -315 154 -613 651 -1044 1304 -1130 145 -19 257 -19 413 0 173 22 274 45
510 120 113 35 240 71 283 81 l78 16 -21 32 c-93 140 -103 195 -102 551 0 268
1 295 21 357 17 52 30 74 62 101 39 34 102 57 153 57 19 0 26 5 26 20 0 20 -7
20 -515 20 -491 0 -515 -1 -515 -18 0 -15 14 -21 77 -30 112 -18 176 -50 212
-107 47 -74 53 -142 49 -527 -6 -467 -8 -472 -201 -519 -107 -25 -294 -30
-392 -10 -334 69 -601 279 -789 620 -132 240 -192 508 -184 816 12 389 137
711 372 953 97 100 197 169 303 210 334 129 696 51 952 -206 90 -90 182 -225
236 -346 21 -47 43 -86 49 -86 8 0 11 77 12 253 1 176 6 283 17 357 9 57 15
106 13 107 -2 2 -27 -9 -57 -24 -42 -22 -69 -29 -134 -31 -70 -3 -104 2 -236
36 -85 23 -192 48 -239 57 -104 19 -327 27 -434 15z"/>
<path d="M5047 6850 c3 -11 14 -20 24 -20 33 0 123 -39 160 -69 44 -37 93
-127 110 -206 11 -48 14 -254 13 -1070 -2 -877 -4 -1020 -18 -1088 -37 -188
-120 -281 -282 -321 -53 -13 -68 -23 -144 -98 -136 -133 -233 -175 -530 -229
-192 -35 -238 -48 -342 -100 l-76 -38 -71 19 c-85 24 -166 25 -245 5 -35 -9
-63 -12 -70 -6 -6 4 -33 11 -61 15 -34 4 -43 3 -30 -3 11 -5 30 -10 42 -10 44
-2 33 -22 -24 -48 -59 -26 -103 -59 -103 -76 0 -5 8 0 18 12 9 11 55 36 101
56 116 49 214 57 303 26 35 -12 69 -24 76 -26 15 -5 -151 -181 -192 -202 -17
-9 -41 -13 -60 -9 -25 5 -28 4 -13 -5 30 -17 79 -2 131 41 26 22 52 40 56 40
4 0 14 -24 21 -52 9 -34 15 -45 17 -32 2 12 -4 38 -12 58 l-15 35 47 42 c125
110 271 163 491 179 195 14 204 14 192 -7 -14 -24 -97 -113 -145 -154 -36 -31
-42 -33 -105 -31 -49 2 -71 -1 -86 -13 -20 -16 -20 -16 2 -6 12 6 45 11 74 11
l52 0 -24 -26 c-13 -14 -67 -48 -119 -74 -96 -49 -139 -85 -178 -151 -26 -42
-29 -61 -6 -33 15 19 16 19 9 -1 -13 -41 -16 -111 -6 -150 11 -40 11 -40 6 14
-4 44 1 67 25 126 35 82 77 128 139 150 l43 15 -5 -33 c-6 -31 3 -19 17 25 3
9 27 28 54 42 68 34 140 93 262 211 58 56 146 129 195 162 107 72 168 134 219
226 31 55 42 67 63 67 l26 0 -5 -83 c-6 -123 -40 -188 -160 -308 -87 -87 -188
-221 -188 -249 0 -29 -56 -103 -101 -132 -26 -18 -46 -34 -44 -36 2 -3 16 3
29 12 50 32 57 23 36 -51 -10 -37 -27 -75 -38 -83 -10 -8 -34 -28 -53 -43
l-34 -28 42 22 c24 13 45 20 49 17 3 -3 1 -32 -5 -64 -14 -72 -14 -149 -1
-119 5 11 15 43 23 70 l14 50 21 -45 c20 -43 20 -43 14 -10 -12 59 -7 203 8
230 l13 24 35 -39 34 -40 -19 35 c-11 19 -26 45 -33 57 -11 17 -12 32 -3 70
30 136 88 225 202 316 l76 60 6 -258 6 -258 -33 -56 c-18 -31 -42 -71 -53 -89
-12 -20 -21 -48 -20 -70 l1 -37 7 37 c7 33 98 184 106 176 2 -2 33 -62 70
-133 98 -192 105 -250 40 -322 -48 -53 -44 -64 5 -13 37 39 40 40 40 18 0 -42
-21 -141 -36 -170 -9 -18 -23 -28 -37 -28 -24 0 -41 -11 -71 -47 -26 -31 -16
-29 29 7 20 16 41 28 45 25 5 -3 1 -28 -8 -56 -13 -40 -26 -57 -59 -80 -24
-17 -48 -40 -54 -52 -9 -15 0 -11 29 15 58 53 65 50 57 -25 -7 -62 6 -140 25
-152 5 -3 4 8 -2 25 -12 37 -7 165 9 181 8 8 17 0 34 -30 32 -58 36 -43 4 19
-16 32 -24 61 -21 75 3 12 31 64 61 116 65 111 75 140 75 236 0 87 -15 128
-87 243 -92 146 -98 168 -97 370 1 154 4 193 31 325 17 83 34 173 38 200 l6
51 145 -146 c87 -87 192 -180 263 -233 66 -49 126 -96 134 -105 8 -9 24 -47
37 -84 12 -38 24 -68 26 -68 3 0 2 28 -2 62 l-7 61 84 -45 c164 -89 335 -152
443 -163 l51 -5 -42 14 c-83 27 -473 239 -473 257 0 9 96 59 143 74 81 25 -11
17 -123 -11 l-102 -26 -49 26 c-28 14 -84 51 -126 83 -85 64 -86 61 27 87 l65
15 -109 -3 -109 -3 -76 57 c-42 32 -92 75 -112 96 -44 46 -123 173 -114 183 4
3 223 4 488 2 937 -8 1012 -7 1132 13 519 86 825 372 825 771 0 306 -177 536
-509 661 -47 18 -129 40 -181 50 -52 9 -102 18 -110 21 -8 3 38 31 105 64 66
32 155 84 198 114 128 92 227 229 262 365 24 91 17 262 -14 342 -67 174 -248
313 -486 373 -199 51 -280 55 -1056 55 -712 0 -717 0 -712 -20z m1327 -84
c218 -56 356 -177 422 -373 37 -107 38 -281 4 -388 -80 -253 -252 -390 -604
-480 l-131 -33 -16 -39 -16 -38 231 0 c207 -1 239 -3 311 -23 312 -86 480
-324 461 -652 -10 -171 -59 -286 -170 -395 -120 -118 -261 -171 -481 -182
-260 -12 -447 44 -512 155 -57 97 -56 77 -60 1079 -5 1149 1 1250 78 1338 39
44 78 53 250 54 114 1 152 -3 233 -23z"/>
</g>
</svg>
